<svg width="24" height="24" viewBox="0 0 24 24" fill="none" xmlns="http://www.w3.org/2000/svg">
  <title>Car front (outlined)</title>
  <g transform="matrix(
          1 0
          0 1
          1 3
        )"><path fill-rule="nonzero" clip-rule="nonzero" d="M 20 6 L 18.5 1.4000000953674316 C 18.200000762939453 0.6000000834465027 17.5 0 16.600000381469727 0 L 5.400000095367432 0 C 4.599999904632568 -4.440892098500626e-16 3.799999952316284 0.6000000834465027 3.5 1.4000000953674316 L 2 6 L 0 6 L 0 9 L 1 9 L 1 18 L 5 18 L 5 16 L 17 16 L 17 18 L 21 18 L 21 9 L 22 9 L 22 6 L 20 6 Z M 17 13 L 5 13 L 4 13 L 4 12 L 8 12 L 8 9 L 4.199999809265137 9 L 6.199999809265137 3 L 15.899999618530273 3 L 17.899999618530273 9 L 14 9 L 14 12 L 18 12 L 18 13 L 17 13 Z" fill="currentColor"/></g>
</svg>